<svg id="Layer_1" enable-background="new 0 0 512 512" height="512" viewBox="0 0 512 512" width="512" xmlns="http://www.w3.org/2000/svg"><g><path d="m491.343 50.493h-128.598c-3.484-17.096-18.635-30-36.745-30h-140c-18.11 0-33.261 12.904-36.745 30h-128.598c-11.39 0-20.657 9.266-20.657 20.654v323.625c0 11.389 9.267 20.654 20.657 20.654h180.014l-10.118 31.086h-21.01c-14.36 0-26.044 11.682-26.044 26.041 0 10.451 8.504 18.954 18.956 18.954h187.088c10.452 0 18.956-8.502 18.956-18.954 0-14.359-11.684-26.041-26.044-26.041h-21.01l-10.118-31.086h180.014c11.391 0 20.657-9.266 20.657-20.654v-323.625c.002-11.388-9.265-20.654-20.655-20.654zm-205.363-15h40.02c12.406 0 22.5 10.093 22.5 22.5s-10.094 22.5-22.5 22.5h-40.02c4.719-6.272 7.52-14.064 7.52-22.5s-2.801-16.228-7.52-22.5zm-29.98 0c12.406 0 22.5 10.093 22.5 22.5s-10.094 22.5-22.5 22.5-22.5-10.093-22.5-22.5 10.094-22.5 22.5-22.5zm-70 0h40.02c-4.719 6.272-7.52 14.064-7.52 22.5s2.801 16.228 7.52 22.5h-40.02c-12.406 0-22.5-10.093-22.5-22.5s10.094-22.5 22.5-22.5zm156.456 426.02c6.09 0 11.044 4.953 11.044 11.041 0 2.18-1.774 3.954-3.956 3.954h-187.088c-2.182 0-3.956-1.773-3.956-3.954 0-6.088 4.954-11.041 11.044-11.041h52.761c4.143 0 7.5-3.358 7.5-7.5s-3.357-7.5-7.5-7.5h-15.976l10.118-31.086h79.107l10.118 31.086h-48.757c-4.143 0-7.5 3.358-7.5 7.5s3.357 7.5 7.5 7.5zm154.544-351.031h-346c-4.143 0-7.5 3.358-7.5 7.5s3.357 7.5 7.5 7.5h346v214.956h-56.75c-4.143 0-7.5 3.358-7.5 7.5s3.357 7.5 7.5 7.5h56.75v39.334c0 3.118-2.538 5.654-5.657 5.654h-470.686c-3.119 0-5.657-2.537-5.657-5.654v-39.334h390.743c4.143 0 7.5-3.358 7.5-7.5s-3.357-7.5-7.5-7.5h-28.662c-5.478-15.807-18.833-27.954-35.427-31.708-.054-.013-.108-.024-.163-.035l-56.858-11.534c-.607-4.64-.725-9.254-.345-14.126 19.929-16.666 29.635-31.432 29.635-45.075 0-1.479-.06-2.936-.188-4.425-.32-3.264-.501-18.313-.438-36.598.051-14.898-5.716-28.918-16.236-39.477-10.53-10.568-24.546-16.39-39.465-16.392-.003 0-.006 0-.009 0-14.92 0-28.938 5.82-39.47 16.387-10.524 10.559-16.292 24.581-16.241 39.483.063 18.295-.118 33.357-.445 36.703-.12 1.359-.181 2.812-.181 4.318 0 13.625 9.676 28.366 29.528 44.984.369 4.766.236 9.276-.401 13.974l-57.879 11.774c-.054.011-.107.022-.161.035-16.592 3.757-29.944 15.906-35.419 31.712h-121.918v-214.956h101.673c4.143 0 7.5-3.358 7.5-7.5s-3.357-7.5-7.5-7.5h-101.673v-39.335c0-3.118 2.538-5.654 5.657-5.654h128.597c3.484 17.096 18.635 30 36.745 30h140c18.11 0 33.261-12.904 36.745-30h128.597c3.119 0 5.657 2.537 5.657 5.654v39.335zm-280.124 86.404c-.037-10.885 4.177-21.128 11.865-28.842 7.698-7.723 17.941-11.976 28.846-11.976h.007c10.902.002 21.146 4.256 28.842 11.98 7.686 7.713 11.898 17.955 11.861 28.837-.053 15.381.054 33.471.502 38.019.082.971.124 1.999.124 3.056 0 9.014-9.467 21.637-26.671 35.558-4.113 3.344-9.295 5.185-14.628 5.185-.016 0-.032 0-.048 0-5.372.002-10.536-1.836-14.683-5.21-17.182-13.9-26.644-26.52-26.644-35.533 0-1.069.041-2.08.115-2.928.458-4.654.565-22.756.512-38.146zm53.169 104.29c-.371.4-.746.802-1.124 1.203-3.28 3.495-7.276 5.418-11.297 5.418-.021 0-.043 0-.065 0-3.988 0-7.993-1.928-11.293-5.447-.442-.469-.88-.939-1.313-1.408.486-3.058.789-6.065.93-9.073 3.74 1.201 7.662 1.833 11.621 1.833h.15c3.916 0 7.791-.614 11.486-1.781.125 3.094.419 6.161.905 9.255zm-35.808 10.263c.367.396.73.793 1.102 1.186 6.152 6.561 14.04 10.171 22.18 10.171h.146c8.169 0 16.049-3.604 22.182-10.14.306-.324.605-.651.908-.977l57.669 11.699c9.688 2.216 17.777 8.557 22.339 17.06h-207.527c4.561-8.505 12.649-14.848 22.338-17.065z"/></g></svg>