<?xml version="1.0"?>
<svg xmlns="http://www.w3.org/2000/svg" viewBox="0 0 512 512" width="512" height="512"><g id="_06-cart" data-name="06-cart"><g id="linear_color-2" data-name="linear color"><path d="M480,6H32A26.03,26.03,0,0,0,6,32V384a26.03,26.03,0,0,0,26,26H208.671l-6.806,54.431a238.492,238.492,0,0,0-47.412,23.249A10,10,0,0,0,160,506H352a10,10,0,0,0,5.547-18.32,238.492,238.492,0,0,0-47.412-23.249L303.329,410H480a26.03,26.03,0,0,0,26-26V32A26.03,26.03,0,0,0,480,6ZM32,26H480a6.006,6.006,0,0,1,6,6V310H26V32A6.006,6.006,0,0,1,32,26ZM208,486h-6.526c15.893-6.393,35.309-12,54.526-12,19.148,0,38.556,5.607,54.459,12H208ZM289.2,458.16a134.521,134.521,0,0,0-66.39,0L228.827,410h54.346ZM486,384a6.006,6.006,0,0,1-6,6H32a6.006,6.006,0,0,1-6-6V330H486Z"/><path d="M240,370h32a10,10,0,0,0,0-20H240a10,10,0,0,0,0,20Z"/><path d="M104,74h24.792l45.721,137.162A9.969,9.969,0,0,0,176,214h0a26.036,26.036,0,1,0,13.831,4h83.462c-.188,1.976-.293,3.976-.293,6a63,63,0,1,0,63-63c-1.987,0-3.949.1-5.89.284l15.377-46.121A10,10,0,0,0,336,102H208a10,10,0,0,0,0,20H322.125l-9.348,28.039c-.257-.02-.515-.039-.777-.039H224a10,10,0,0,0,0,20h79.589a63.409,63.409,0,0,0-24.951,28h-87.43L145.487,60.838A10,10,0,0,0,136,54H104a10,10,0,0,0,0,20Zm72,172a6,6,0,1,1,6-6A6.006,6.006,0,0,1,176,246Zm203-22a43,43,0,1,1-43-43A43.049,43.049,0,0,1,379,224Z"/><path d="M315.528,232.944l16,8a10,10,0,0,0,12.792-3.4l16-24a10,10,0,0,0-16.64-11.094l-11.1,16.655-8.1-4.052a10,10,0,0,0-8.944,17.888Z"/></g></g></svg>
