<?xml version="1.0" encoding="iso-8859-1"?>
<!-- Generator: Adobe Illustrator 19.0.0, SVG Export Plug-In . SVG Version: 6.00 Build 0)  -->
<svg version="1.1" id="Capa_1" xmlns="http://www.w3.org/2000/svg" xmlns:xlink="http://www.w3.org/1999/xlink" x="0px" y="0px"
	 viewBox="0 0 512 512" style="enable-background:new 0 0 512 512;" xml:space="preserve">
<g>
	<g>
		<path d="M324.651,496.422l-22.398-257.575c3.333-1.16,6.452-2.871,9.216-5.107c10.708,6.25,23.135,9.287,35.634,8.62
			c15.667-0.836,30.455-7.478,41.637-18.7c11.183-11.222,17.772-26.033,18.554-41.703c0.529-10.611-1.591-21.236-6.132-30.725
			c-0.812-1.697-0.391-3.647,1.023-4.742c9.256-7.162,14.565-17.973,14.565-29.661c0-10.26-4.276-20.19-11.731-27.244
			c-7.561-7.154-17.466-10.776-27.892-10.197c-18.827,1.043-33.998,16.019-35.288,34.837c-0.017,0.251-0.032,0.502-0.044,0.754
			c-18.831,0.526-36.158,9.161-47.956,23.92c-7.367-3.799-15.632-5.571-23.993-5.129c-22.672,1.196-42.944,21.352-44.266,44.015
			c-0.548,9.402,1.683,18.621,6.451,26.659c0.052,0.088,0.068,0.158,0.05,0.225c-0.013,0.05-0.039,0.09-0.127,0.14
			c-10.777,6.124-18.197,16.438-20.601,28.269H196.15l-11.36,124.959l-17.66-203.085c11.361-8.603,19.128-21.715,20.61-36.648
			c7.961-1.195,15.234-5.036,20.748-10.999c10.642,8.581,23.89,13.273,37.636,13.273c29.814,0,55.017-22.108,59.332-51.136
			c5.045-1.051,9.684-3.687,13.18-7.579c4.616-5.138,6.837-12.048,6.094-18.957c-1.193-11.097-10.103-20.145-21.184-21.514
			c-3.729-0.461-7.52-0.06-11.028,1.16C281.063,8.576,264.202,0.578,246.125,0.578c-28.509,0-52.701,19.691-58.631,47.243
			c-1.692-0.245-3.404-0.368-5.119-0.368c-12.002,0-23.166,6.069-29.729,16.001c-5.508-1.909-11.263-2.876-17.146-2.876
			c-25.747,0-47.558,18.835-51.757,43.744c-12.347,5.166-20.296,17.621-19.428,31.426c0.341,5.422,2.068,10.475,4.814,14.83h-8.004
			L31.051,496.422H0v15h512v-15H324.651z M92.307,117.268l5.415-1.251l0.38-5.544c1.341-19.567,17.768-34.895,37.398-34.895
			c4.85,0,9.574,0.918,14.042,2.728c5.515,2.234,11.891-0.038,14.828-5.285c3.65-6.519,10.549-10.568,18.005-10.568
			c1.605,0,3.203,0.186,4.75,0.552c3.209,0.76,6.63,0.141,9.389-1.697c2.777-1.851,4.68-4.796,5.219-8.081
			c3.58-21.816,22.25-37.649,44.393-37.649c13.766,0,26.594,6.188,35.195,16.979c3.823,4.797,10.159,6.523,15.767,4.296
			c1.46-0.58,3.015-0.773,4.621-0.575c4.242,0.524,7.653,3.986,8.109,8.231c0.292,2.722-0.538,5.325-2.339,7.33
			c-1.778,1.979-4.321,3.114-6.987,3.114c-0.005,0-0.009,0-0.014,0c-4.976,0-9.136,3.847-9.476,8.766
			c-1.616,23.472-21.328,41.859-44.876,41.859c-11.076,0-21.721-4.062-29.972-11.438c-2.468-2.206-5.782-3.298-9.094-2.999
			c-3.308,0.3-6.368,1.969-8.395,4.578c-3.943,5.073-9.88,7.983-16.289,7.983c-0.478,0-0.95-0.024-1.419-0.056l-8.358-0.564
			l0.36,8.37c0.023,0.54,0.042,1.08,0.042,1.625c0,20.677-16.822,37.5-37.5,37.5H95.825v-0.002
			c-8.729-0.15-15.994-7.076-16.54-15.768C78.763,126.508,84.24,119.131,92.307,117.268z M74.876,165.578h78.123l1.957,22.5H72.919
			L74.876,165.578z M71.616,203.078h84.645l1.955,22.5H69.659L71.616,203.078z M46.107,496.422l19.639-225.844H75.5v-15h-8.45
			l1.304-15h91.167l1.304,15H150.5v15h11.629l19.639,225.844H46.107z M239.365,217.851c3.598-2.044,6.161-5.359,7.216-9.335
			c1.058-3.987,0.473-8.151-1.647-11.725c-3.237-5.457-4.75-11.727-4.377-18.133c0.883-15.134,14.939-29.11,30.081-29.909
			c6.011-0.314,11.936,1.037,17.137,3.914c5.853,3.238,13.077,1.712,17.179-3.627c9.317-12.127,23.413-19.082,38.727-19.082
			c0.005,0,0.01,0,0.016,0c3.519,0,6.817-1.365,9.289-3.846c2.445-2.453,3.783-5.71,3.767-9.17c-0.002-0.56,0.016-1.129,0.054-1.689
			c0.761-11.095,10.052-20.269,21.153-20.884c6.269-0.348,12.217,1.825,16.752,6.116c4.54,4.295,7.041,10.101,7.041,16.348
			c0,7.011-3.187,13.498-8.744,17.798c-7.054,5.458-9.265,14.949-5.375,23.079c3.518,7.352,5.093,15.26,4.682,23.504
			c-1.227,24.579-21.437,44.861-46.01,46.173c-11.387,0.609-22.249-2.608-31.404-9.301l-5.838-4.267l-4.478,5.678
			c-3.049,3.868-7.613,6.086-12.58,6.086c-0.007,0-0.013,0-0.02,0c-3.443,0-6.748,1.457-9.068,4
			c-0.948,1.038-1.689,2.228-2.226,3.501h-53.855C228.912,226.731,233.325,221.282,239.365,217.851z M196.824,496.422l-4.67-53.704
			l9.513-104.64h10.708v-15h-9.344l1.364-15H278v-15h-72.242l4.091-45h78.15l1.304,15H225.5v15h65.108l3.913,45H285.5v15h10.325
			l13.769,158.344H196.824z"/>
	</g>
</g>
<g>
	<g>
		<path d="M375.5,11.828c-14.474,0-26.25,11.776-26.25,26.25s11.776,26.25,26.25,26.25s26.25-11.776,26.25-26.25
			S389.974,11.828,375.5,11.828z M375.5,49.328c-6.203,0-11.25-5.047-11.25-11.25s5.047-11.25,11.25-11.25s11.25,5.047,11.25,11.25
			S381.703,49.328,375.5,49.328z"/>
	</g>
</g>
<g>
	<g>
		<path d="M455.187,71.827c-11.89,0-21.562,9.673-21.562,21.563c0,11.89,9.673,21.563,21.562,21.563
			c11.89,0,21.563-9.673,21.563-21.563C476.75,81.5,467.077,71.827,455.187,71.827z M455.187,99.954
			c-3.624,0-6.562-2.938-6.562-6.563s2.938-6.563,6.562-6.563s6.563,2.938,6.563,6.563S458.812,99.954,455.187,99.954z"/>
	</g>
</g>
<g>
	<g>
		<rect x="90.5" y="255.58" width="15" height="15"/>
	</g>
</g>
<g>
	<g>
		<rect x="120.5" y="255.58" width="15" height="15"/>
	</g>
</g>
<g>
	<g>
		<path d="M113,120.578h15c0-8.271,6.729-15,15-15v-15C126.458,90.578,113,104.036,113,120.578z"/>
	</g>
</g>
<g>
	<g>
		<path d="M255.5,58.703c0,8.271-6.729,15-15,15v15c16.542,0,30-13.458,30-30H255.5z"/>
	</g>
</g>
<g>
	<g>
		<rect x="225.5" y="323.08" width="15" height="15"/>
	</g>
</g>
<g>
	<g>
		<rect x="255.5" y="323.08" width="15" height="15"/>
	</g>
</g>
<g>
	<g>
		<path d="M249.875,180.578h15c0-3.102,2.523-5.625,5.625-5.625v-15C259.127,159.953,249.875,169.205,249.875,180.578z"/>
	</g>
</g>
<g>
	<g>
		<path d="M368,182.453c0,11.373-9.252,20.625-20.625,20.625v15c19.644,0,35.625-15.981,35.625-35.625H368z"/>
	</g>
</g>
<g>
</g>
<g>
</g>
<g>
</g>
<g>
</g>
<g>
</g>
<g>
</g>
<g>
</g>
<g>
</g>
<g>
</g>
<g>
</g>
<g>
</g>
<g>
</g>
<g>
</g>
<g>
</g>
<g>
</g>
</svg>
