<?xml version="1.0" encoding="utf-8"?>
<!-- Generator: Adobe Illustrator 20.0.0, SVG Export Plug-In . SVG Version: 6.00 Build 0)  -->
<svg version="1.1" id="Layer_1" xmlns="http://www.w3.org/2000/svg" xmlns:xlink="http://www.w3.org/1999/xlink" x="0px" y="0px"
	 viewBox="0 0 64 42" style="enable-background:new 0 0 64 42;" xml:space="preserve">
<style type="text/css">
	.st0{fill:#FFFFFF;}
	.st1{fill:#57A863;}
	.st2{fill:#009246;}
	.st3{fill:#CE2B37;}
</style>
<path id="Rounded_Rectangle_7_copy" class="st0" d="M5.8,0h52.3C61.4,0,64,2.6,64,5.7v30.6c0,3.2-2.6,5.7-5.8,5.7H5.8
	C2.6,42,0,39.4,0,36.3V5.7C0,2.6,2.6,0,5.8,0z"/>
<path class="st1" d="M64,5.3v31.4c0-0.1,0-0.3,0-0.4V5.7C64,5.6,64,5.5,64,5.3z"/>
<path class="st2" d="M5.8,42h15.5V0H5.8C2.6,0,0,2.6,0,5.7v30.7C0,39.5,2.6,42.1,5.8,42z"/>
<path class="st3" d="M58.2,42H42.7V0h15.5C61.4,0,64,2.6,64,5.7v30.7C64,39.5,61.4,42.1,58.2,42z"/>
</svg>
