<svg height="512" viewBox="0 0 512 512" width="512" xmlns="http://www.w3.org/2000/svg"><g id="Outline"><path d="m396.2 42.88a202.3 202.3 0 0 0 -138.793-23.151 200.237 200.237 0 0 0 -157.059 154.612l15.652 3.318a183.115 183.115 0 0 1 47.827-89.659h23.229l29.789 59.578a8 8 0 0 0 7.155 4.422h32a8 8 0 0 0 8-8v-24h35.357l22.858 40h-18.215a8 8 0 0 0 -8 8v8h40a8 8 0 0 0 6.946-11.969l-32-56a8 8 0 0 0 -6.946-4.031h-48a8 8 0 0 0 -8 8v24h-19.056l-29.789-59.578a8 8 0 0 0 -7.155-4.422h-10.562a182.494 182.494 0 0 1 73.483-35.387l18.153 31.392a8 8 0 0 0 6.926 3.995h35.471l21.669 36.116a8 8 0 0 0 6.116 3.849c.249.024.5.035.745.035a8 8 0 0 0 5.978-2.685l43.76-49.227a183.98 183.98 0 0 1 33.541 27l-56.632 50.969a8 8 0 0 0 -2.648 5.943v40h16v-36.437l53.986-48.589a183.573 183.573 0 0 1 42.014 117.026v.8l-35.962 47.2h-28.038v-64a8 8 0 0 0 -8-8h-24v16h16v64a8 8 0 0 0 8 8h40a8 8 0 0 0 6.363-3.152l23.066-30.275a183.909 183.909 0 0 1 -97.1 133.006l7.344 14.214c1.192 2.308 40-27.146 43.251-30.113a199.783 199.783 0 0 0 65.076-147.68c0-70.263-39.048-137.913-99.8-173.12zm-50.943 47.665-18.4-30.661a8 8 0 0 0 -6.857-3.884h-35.385l-12.946-22.388a184.156 184.156 0 0 1 107.831 18.414z"/><path d="m188.713 108.334-11.293-11.334a169.483 169.483 0 0 0 -15.82 18.183l12.792 9.611a153.3 153.3 0 0 1 14.321-16.46z"/><path d="m133.295 174.006 15.494 3.988a150.99 150.99 0 0 1 18.011-42.094l-13.59-8.445a166.942 166.942 0 0 0 -19.915 46.551z"/><path d="m336 192h-288a32.036 32.036 0 0 0 -32 32v16h16v-16a16.019 16.019 0 0 1 16-16h288a16.019 16.019 0 0 1 16 16v168h-320v-136h-16v160a32.036 32.036 0 0 0 32 32h100.9l-10.666 32h-18.234v16h144v-16h-18.234l-10.666-32h100.9a32.036 32.036 0 0 0 32-32v-192a32.036 32.036 0 0 0 -32-32zm-107.1 288h-73.8l10.666-32h52.468zm107.1-48h-288a16.019 16.019 0 0 1 -16-16v-8h320v8a16.019 16.019 0 0 1 -16 16z"/><path d="m189.191 375.491a8.205 8.205 0 0 0 5.618 0 106.631 106.631 0 0 0 69.191-99.843v-19.648a8 8 0 0 0 -8-8 88.544 88.544 0 0 1 -52.8-17.6l-6.4-4.8a8 8 0 0 0 -9.6 0l-6.4 4.8a88.55 88.55 0 0 1 -52.8 17.6 8 8 0 0 0 -8 8v19.648a106.631 106.631 0 0 0 69.191 99.843zm-53.191-99.843v-11.962a104.75 104.75 0 0 0 54.4-20.486l1.6-1.2 1.6 1.2a104.75 104.75 0 0 0 54.4 20.486v11.962a91.079 91.079 0 0 1 -56 83.752 91.079 91.079 0 0 1 -56-83.752z"/><path d="m184 320a7.974 7.974 0 0 0 5.657-2.343l40-40-11.314-11.314-34.343 34.344-10.343-10.344-11.314 11.314 16 16a7.974 7.974 0 0 0 5.657 2.343z"/><path d="m56 288h40v16h-40z"/><path d="m72 230.111h16v35.777h-16z" transform="matrix(.447 -.894 .894 .447 -177.593 208.631)"/><path d="m70.459 336h43.081v16h-43.081z" transform="matrix(.928 -.371 .371 .928 -121.178 58.772)"/><path d="m288 288h40v16h-40z"/><path d="m286.111 240h35.777v16h-35.777z" transform="matrix(.894 -.447 .447 .894 -78.82 162.156)"/><path d="m284 322.459h16v43.081h-16z" transform="matrix(.371 -.928 .928 .371 -135.842 487.357)"/><path d="m388.568 411.217 6.864 14.453a231.16 231.16 0 0 0 74.568-56.207l-12-10.586a215.241 215.241 0 0 1 -69.432 52.34z"/><path d="m465.718 349.625 12.564 9.907a233.829 233.829 0 0 0 13.649-19.24l-13.5-8.584a217.271 217.271 0 0 1 -12.713 17.917z"/><path d="m483.107 108.006 13.85-8.012a233.848 233.848 0 0 0 -76.665-79.925l-8.584 13.5a217.768 217.768 0 0 1 71.399 74.437z"/><path d="m180.292 33.572-8.584-13.5a233.114 233.114 0 0 0 -95.462 121.358l15.154 5.14a217.052 217.052 0 0 1 88.892-112.998z"/><path d="m86.805 161.993-15.5-3.986c-1.4 5.457-2.622 11.033-3.621 16.575l15.747 2.836c.933-5.156 2.069-10.346 3.374-15.425z"/></g></svg>